<!-- Generated by IcoMoon.io -->
<svg version="1.1" xmlns="http://www.w3.org/2000/svg" width="43" height="32" viewBox="0 0 43 32">
<title>brand</title>
<path d="M3.241 26.376c0.163 0.184 0.252 0.422 0.245 0.66 0.014 0.157-0.020 0.313-0.088 0.463-0.068 0.143-0.163 0.272-0.293 0.381-0.327 0.218-0.722 0.327-1.13 0.306h-1.974v-4.221h1.934c0.032-0.002 0.069-0.003 0.106-0.003 0.361 0 0.696 0.108 0.976 0.293l-0.007-0.004c0.123 0.095 0.225 0.218 0.286 0.354 0.068 0.136 0.095 0.286 0.088 0.436 0.014 0.232-0.068 0.456-0.225 0.64-0.15 0.17-0.354 0.286-0.586 0.334 0.259 0.041 0.497 0.17 0.667 0.361zM0.926 25.736h0.817c0.191 0.014 0.381-0.034 0.531-0.136 0.068-0.054 0.109-0.116 0.136-0.191 0.034-0.068 0.048-0.15 0.041-0.225 0.001-0.013 0.002-0.028 0.002-0.043 0-0.066-0.013-0.128-0.037-0.185l0.001 0.003c-0.033-0.073-0.079-0.134-0.135-0.183l-0.001-0.001c-0.134-0.091-0.299-0.146-0.476-0.146-0.024 0-0.048 0.001-0.071 0.003l0.003-0h-0.817v1.103zM2.356 27.357c0.068-0.054 0.116-0.123 0.15-0.197 0.034-0.068 0.048-0.157 0.048-0.232 0-0.008 0.001-0.017 0.001-0.026 0-0.077-0.018-0.15-0.050-0.215l0.001 0.003c-0.037-0.079-0.090-0.145-0.155-0.197l-0.001-0.001c-0.142-0.095-0.316-0.151-0.503-0.151-0.019 0-0.038 0.001-0.058 0.002l0.003-0h-0.872v1.157h0.885c0.191 0.014 0.388-0.041 0.545-0.15zM7.197 28.187l-1.069-1.648h-0.409v1.648h-0.933v-4.221h1.757c0.038-0.003 0.082-0.004 0.126-0.004 0.414 0 0.797 0.137 1.104 0.369l-0.005-0.003c0.259 0.233 0.421 0.569 0.421 0.943 0 0.305-0.107 0.584-0.287 0.802l0.002-0.002c-0.225 0.232-0.524 0.381-0.844 0.429l1.144 1.689h-1.008zM5.719 25.961h0.763c0.524 0 0.79-0.204 0.79-0.633 0-0.008 0.001-0.018 0.001-0.027 0-0.084-0.018-0.163-0.050-0.235l0.001 0.004c-0.036-0.085-0.086-0.158-0.149-0.218l-0-0c-0.144-0.108-0.325-0.173-0.521-0.173-0.025 0-0.050 0.001-0.074 0.003l0.003-0h-0.776l0.007 1.28zM12.262 27.336h-1.845l-0.327 0.851h-0.974l1.702-4.174h1.049l1.688 4.174h-0.974l-0.327-0.851zM12.017 26.696l-0.681-1.777-0.674 1.777h1.355zM18.601 28.187h-0.919l-2.063-2.866v2.86h-0.912v-4.208h0.919l2.063 2.88v-2.88h0.919v4.214zM23.85 27.173c-0.191 0.32-0.477 0.579-0.831 0.749-0.402 0.184-0.844 0.272-1.294 0.266h-1.634v-4.221h1.634c0.449-0.007 0.892 0.082 1.294 0.266 0.354 0.163 0.64 0.415 0.831 0.735 0.179 0.318 0.284 0.698 0.284 1.103s-0.105 0.785-0.29 1.114l0.006-0.012zM22.802 27.077c0.259-0.279 0.409-0.64 0.409-1.008s-0.15-0.729-0.409-1.008c-0.284-0.223-0.647-0.358-1.042-0.358-0.041 0-0.081 0.001-0.121 0.004l0.005-0h-0.633v2.723h0.64c0.415 0.027 0.831-0.102 1.151-0.354zM12.841 0.524s11.867 4.099 11.615 10.043v10.043s-11.86-4.106-11.615-10.043v-10.043zM35.037 18.26c2.152-1.365 4.718-2.278 7.474-2.541l0.069-0.005v-3.146c-3.122 1.095-5.703 3.078-7.512 5.644l-0.032 0.048z"></path>
<path d="M33.688 19.2c1.949-3.435 5.056-6.021 8.781-7.253l0.111-0.032v-9.076s-16.912 5.862-16.552 14.318v14.298s0.749-0.259 1.94-0.749c0-0.463 0-0.919 0.054-1.382 0.422-4.146 2.536-7.728 5.63-10.092l0.035-0.026z"></path>
<path d="M32.082 24.517c0.089-0.987 0.286-1.974 0.592-2.928-2.13 2.263-3.474 5.288-3.581 8.626l-0.001 0.021c0.96-0.429 2.077-0.953 3.254-1.573-0.3-1.362-0.388-2.757-0.266-4.146zM32.749 24.572c-0.109 1.253-0.034 2.519 0.211 3.745 4.623-2.526 9.811-6.434 9.614-11.166v-0.409c-3.393 0.338-6.416 1.703-8.81 3.775l0.020-0.017c-0.529 1.191-0.895 2.572-1.024 4.021l-0.004 0.050z"></path>
</svg>
