<!-- Generated by IcoMoon.io -->
<svg version="1.1" xmlns="http://www.w3.org/2000/svg" width="67" height="32" viewBox="0 0 67 32">
<title>cvadro</title>
<path d="M33.721 15.218c-0.269-0.349-0.431-0.792-0.431-1.274 0-0.047 0.002-0.094 0.005-0.141l-0 0.006v-2.048c0-0.633 0.142-1.109 0.427-1.436s0.782-0.491 1.472-0.484c0.647 0 1.116 0.142 1.387 0.412 0.299 0.356 0.441 0.789 0.412 1.23v0.476h-1.166v-0.484c0-0.164-0.007-0.32-0.036-0.476-0.019-0.115-0.078-0.214-0.163-0.284l-0.001-0.001c-0.106-0.072-0.237-0.116-0.378-0.116-0.017 0-0.034 0.001-0.051 0.002l0.002-0c-0.013-0.001-0.027-0.001-0.042-0.001-0.149 0-0.287 0.046-0.401 0.124l0.002-0.002c-0.099 0.077-0.17 0.185-0.198 0.309l-0.001 0.004c-0.028 0.164-0.043 0.334-0.043 0.498v2.489c-0.021 0.249 0.036 0.484 0.149 0.704 0.057 0.071 0.142 0.135 0.235 0.171 0.066 0.025 0.143 0.040 0.223 0.040 0.027 0 0.053-0.002 0.079-0.005l-0.003 0c0.017 0.002 0.036 0.002 0.055 0.002 0.133 0 0.257-0.041 0.36-0.11l-0.002 0.001c0.092-0.075 0.157-0.182 0.177-0.303l0-0.003c0.021-0.164 0.036-0.334 0.036-0.498v-0.512h1.166v0.462c0.028 0.455-0.114 0.91-0.405 1.287-0.27 0.306-0.725 0.455-1.394 0.455-0.676 0-1.18-0.164-1.472-0.498zM38.585 15.246c-0.299-0.32-0.441-0.782-0.441-1.401v-2.155c0-0.612 0.142-1.067 0.441-1.387 0.292-0.313 0.782-0.469 1.479-0.462 0.683 0 1.173 0.149 1.465 0.462 0.299 0.313 0.448 0.775 0.448 1.387v2.155c0 0.612-0.149 1.074-0.448 1.394-0.299 0.327-0.782 0.484-1.465 0.484s-1.188-0.164-1.479-0.476zM40.604 14.727c0.107-0.199 0.156-0.42 0.142-0.64v-2.638c0.014-0.213-0.036-0.427-0.142-0.626-0.061-0.075-0.14-0.134-0.231-0.169l-0.004-0.001c-0.067-0.026-0.144-0.041-0.225-0.041-0.029 0-0.057 0.002-0.084 0.005l0.003-0c-0.025-0.004-0.055-0.005-0.085-0.005-0.082 0-0.16 0.015-0.233 0.043l0.005-0.002c-0.097 0.036-0.179 0.095-0.241 0.17l-0.001 0.001c-0.1 0.192-0.149 0.412-0.142 0.626v2.652c-0.007 0.213 0.036 0.441 0.142 0.64 0.145 0.131 0.339 0.211 0.551 0.211 0.106 0 0.208-0.020 0.301-0.057l-0.006 0.002c0.1-0.036 0.178-0.092 0.249-0.156v-0.014zM43.378 9.899h1.259l0.946 3.982 0.967-3.982h1.223l0.121 5.746h-0.903l-0.1-3.989-0.924 3.989h-0.74l-0.967-4.004-0.085 4.004h-0.917l0.114-5.746zM49.301 9.899h1.956c1.131 0 1.692 0.548 1.692 1.636 0 1.038-0.59 1.564-1.778 1.564h-0.668v2.546h-1.209l0.007-5.746zM50.972 12.359c0.121 0.007 0.242 0 0.356-0.028 0.114-0.036 0.22-0.085 0.313-0.156 0.135-0.192 0.199-0.427 0.171-0.647 0-0.178-0.014-0.356-0.057-0.526-0.020-0.061-0.052-0.113-0.093-0.157l0 0c-0.042-0.046-0.091-0.084-0.147-0.112l-0.003-0.001c-0.171-0.071-0.356-0.1-0.54-0.092h-0.469v1.721h0.469zM54.684 9.899h1.301l1.337 5.746h-1.131l-0.263-1.323h-1.159l-0.27 1.323h-1.138l1.33-5.746zM55.801 13.653l-0.455-2.411-0.448 2.418h0.903zM58.396 9.899h0.846l1.614 3.278v-3.271h1.010v5.739h-0.804l-1.628-3.413v3.413h-1.038v-5.746zM64.213 13.454l-1.351-3.548h1.138l0.818 2.276 0.768-2.276h1.109l-1.323 3.556v2.183h-1.166v-2.19zM35.591 18.155v0.299h-0.988v2.34h-0.412v-2.34h-0.996v-0.299h2.396zM38.684 20.793h-0.327c-0.032 0-0.062-0.011-0.086-0.029l0 0c-0.024-0.013-0.044-0.033-0.057-0.056l-0-0.001-0.284-0.626h-1.365l-0.284 0.626c-0.009 0.028-0.023 0.052-0.043 0.071v0c-0.022 0.014-0.048 0.022-0.076 0.022-0.006 0-0.011-0-0.017-0.001l0.001 0h-0.32l1.209-2.631h0.427l1.216 2.624zM36.679 19.812h1.138l-0.484-1.067c-0.030-0.070-0.059-0.155-0.082-0.243l-0.003-0.013-0.050 0.142-0.043 0.114-0.476 1.067zM40.761 20.53h0.228c0.135-0.007 0.261-0.033 0.379-0.074l-0.010 0.003 0.156-0.071v-0.59h-0.484c-0.001 0-0.002 0-0.002 0-0.023 0-0.045-0.008-0.062-0.022l0 0c-0.006-0.006-0.011-0.013-0.014-0.021l-0-0-0.007-0.028v-0.199h0.939v1.010c-0.232 0.144-0.508 0.239-0.804 0.263l-0.007 0c-0.121 0.014-0.235 0.021-0.356 0.021-0.213 0-0.412-0.036-0.612-0.1-0.186-0.065-0.347-0.16-0.485-0.279l0.002 0.002c-0.127-0.114-0.23-0.251-0.302-0.405l-0.003-0.008c-0.078-0.178-0.114-0.363-0.114-0.548-0.001-0.013-0.001-0.029-0.001-0.045 0-0.369 0.165-0.699 0.426-0.921l0.002-0.001c0.128-0.121 0.299-0.213 0.476-0.277 0.189-0.064 0.407-0.101 0.633-0.101 0.123 0 0.244 0.011 0.361 0.032l-0.012-0.002c0.199 0.029 0.379 0.089 0.542 0.175l-0.009-0.004c0.071 0.036 0.142 0.085 0.213 0.135l-0.121 0.164c-0.011 0.016-0.025 0.028-0.042 0.035l-0.001 0c-0.014 0.008-0.031 0.013-0.049 0.014l-0 0c-0.026-0.001-0.051-0.009-0.072-0.022l0.001 0c-0.050-0.023-0.089-0.045-0.128-0.068l0.007 0.004c-0.192-0.094-0.418-0.15-0.657-0.15-0.012 0-0.023 0-0.035 0l0.002-0c-0.164 0-0.32 0.021-0.469 0.071-0.142 0.050-0.256 0.121-0.356 0.213-0.096 0.088-0.173 0.194-0.225 0.314l-0.002 0.006c-0.107 0.284-0.107 0.597 0 0.882 0.168 0.356 0.523 0.599 0.936 0.599 0.046 0 0.091-0.003 0.136-0.009l-0.005 0.001zM44.615 20.487h1.316v0.306h-1.721v-2.631h0.412l-0.007 2.325zM47.303 20.793h-0.412v-2.631h0.412v2.631zM48.839 18.169c0.028 0.014 0.050 0.028 0.064 0.050l1.764 1.984v-2.055h0.356v2.645h-0.199c-0.036 0-0.064 0-0.092-0.014-0.025-0.013-0.046-0.030-0.064-0.050l-0-0-1.764-1.991v2.055h-0.348v-2.631h0.284zM54.073 18.155v0.284h-1.465v0.875h1.188v0.284h-1.188v0.896h1.465v0.284h-1.892v-2.624h1.892zM10.78 1.892l18.347 4.494v15.758l-18.347-4.494v-15.758zM9.607 0.54v17.877l20.693 5.077v-17.877l-20.7-5.070z"></path>
<path d="M20.693 31.787l-20.693-5.092v-17.856l20.693 5.077v17.863z"></path>
<path d="M9.948 1.685l18.105 4.444-7.701 6.642-18.105-4.437 7.701-6.649zM9.607 0.548l-9.607 8.292 20.693 5.077 9.6-8.299-20.693-5.070zM21.86 30.777l8.441-7.289-8.441-2.069v9.358z"></path>
</svg>
