<!-- Generated by IcoMoon.io -->
<svg version="1.1" xmlns="http://www.w3.org/2000/svg" width="34" height="32" viewBox="0 0 34 32">
<title>lifscompany</title>
<path d="M5.638 31.314l0.038 0.008 0.030 0.015 0.168 0.16c-0.13 0.13-0.29 0.229-0.465 0.305-0.213 0.076-0.442 0.114-0.663 0.107-0.213 0-0.427-0.030-0.625-0.099-0.352-0.122-0.628-0.383-0.766-0.715l-0.003-0.008c-0.072-0.168-0.114-0.363-0.114-0.568s0.042-0.4 0.118-0.577l-0.004 0.010c0.076-0.16 0.183-0.312 0.328-0.442 0.137-0.122 0.305-0.221 0.495-0.282 0.192-0.069 0.413-0.109 0.644-0.109 0.214 0 0.42 0.034 0.612 0.098l-0.014-0.004c0.16 0.061 0.312 0.152 0.442 0.259l-0.137 0.168c-0.011 0.012-0.023 0.022-0.037 0.030l-0.001 0c-0.015 0.010-0.033 0.015-0.053 0.015-0 0-0 0-0.001 0h0c-0.023-0.003-0.044-0.011-0.061-0.023l0 0-0.076-0.046-0.099-0.053c-0.153-0.078-0.334-0.123-0.525-0.123-0.019 0-0.038 0-0.057 0.001l0.003-0c-0.152 0-0.312 0.023-0.457 0.076-0.271 0.093-0.484 0.294-0.592 0.55l-0.002 0.006c-0.057 0.13-0.091 0.282-0.091 0.442v0c0 0.152 0.030 0.312 0.084 0.457 0.104 0.259 0.313 0.458 0.572 0.547l0.007 0.002c0.137 0.046 0.282 0.076 0.427 0.076l0.251-0.015c0.212-0.023 0.4-0.108 0.55-0.237l-0.001 0.001c0.021-0.017 0.047-0.029 0.076-0.030l0-0zM10.438 30.514c0 0.198-0.030 0.381-0.107 0.564-0.076 0.16-0.175 0.305-0.312 0.434-0.145 0.13-0.305 0.229-0.495 0.29-0.404 0.137-0.853 0.137-1.265 0-0.189-0.068-0.351-0.166-0.489-0.291l0.001 0.001c-0.132-0.121-0.237-0.268-0.309-0.434l-0.003-0.008c-0.152-0.358-0.152-0.762 0-1.12 0.076-0.168 0.175-0.312 0.312-0.442 0.145-0.122 0.305-0.213 0.488-0.282 0.189-0.065 0.406-0.103 0.632-0.103s0.444 0.038 0.646 0.107l-0.014-0.004c0.183 0.069 0.35 0.168 0.495 0.29 0.258 0.238 0.42 0.577 0.42 0.955 0 0.015-0 0.031-0.001 0.046l0-0.002zM10.004 30.514c0-0.152-0.023-0.305-0.076-0.45-0.101-0.259-0.307-0.458-0.565-0.547l-0.007-0.002c-0.136-0.046-0.294-0.073-0.457-0.073s-0.321 0.027-0.467 0.076l0.010-0.003c-0.139 0.048-0.259 0.121-0.359 0.214l0.001-0.001c-0.098 0.091-0.176 0.203-0.226 0.329l-0.002 0.006c-0.099 0.297-0.099 0.61 0 0.907 0.101 0.262 0.311 0.462 0.573 0.547l0.006 0.002c0.297 0.091 0.625 0.091 0.914 0 0.137-0.053 0.259-0.122 0.358-0.213 0.099-0.099 0.175-0.213 0.221-0.335 0.053-0.152 0.076-0.305 0.076-0.457zM13.714 30.987l0.046 0.107 0.046-0.107 0.053-0.099 1.067-1.676c0.015-0.023 0.038-0.046 0.053-0.046 0.027-0.010 0.059-0.015 0.091-0.015v0h0.312v2.728h-0.373v-2.179l-1.067 1.699c-0.014 0.026-0.035 0.047-0.060 0.061l-0.001 0c-0.026 0.014-0.057 0.023-0.090 0.023-0 0-0.001 0-0.001 0h-0.061c-0.001 0-0.002 0-0.003 0-0.033 0-0.063-0.008-0.089-0.023l0.001 0c-0.026-0.014-0.047-0.035-0.061-0.060l-0-0.001-1.097-1.714v2.194h-0.366v-2.728h0.32c0.030 0 0.053 0 0.084 0.015 0.023 0.008 0.046 0.023 0.061 0.046l1.082 1.676 0.053 0.099zM17.707 30.857v1.021h-0.411v-2.728h0.93c0.168 0 0.343 0.023 0.51 0.061 0.137 0.030 0.259 0.091 0.366 0.168 0.099 0.076 0.168 0.168 0.213 0.267 0.046 0.114 0.076 0.229 0.069 0.35 0 0.002 0 0.005 0 0.008 0 0.248-0.119 0.469-0.303 0.608l-0.002 0.001c-0.107 0.084-0.229 0.152-0.366 0.183-0.145 0.044-0.313 0.069-0.486 0.069-0.006 0-0.012-0-0.018-0h0.001l-0.503-0.008zM17.707 30.56h0.503c0.114 0 0.221-0.008 0.328-0.038 0.088-0.028 0.164-0.070 0.23-0.123l-0.001 0.001c0.117-0.097 0.191-0.242 0.191-0.405 0-0.002 0-0.005-0-0.007v0c0.001-0.009 0.001-0.019 0.001-0.029 0-0.067-0.014-0.13-0.040-0.188l0.001 0.003c-0.037-0.076-0.088-0.14-0.151-0.19l-0.001-0.001c-0.152-0.107-0.35-0.152-0.556-0.145h-0.503v1.12zM23.291 31.878h-0.328c-0.003 0-0.007 0-0.011 0-0.030 0-0.058-0.009-0.081-0.024l0.001 0c-0.022-0.016-0.040-0.036-0.053-0.060l-0-0.001-0.282-0.663h-1.417l-0.297 0.663c-0.010 0.024-0.026 0.045-0.045 0.061l-0 0c-0.023 0.015-0.051 0.024-0.082 0.024-0.006 0-0.012-0-0.018-0.001l0.001 0h-0.328l1.25-2.728h0.434l1.257 2.728zM21.234 30.865h1.173l-0.495-1.105c-0.038-0.084-0.069-0.175-0.091-0.259l-0.046 0.145-0.046 0.114-0.495 1.105zM25.090 29.166l0.061 0.046 1.821 2.057v-2.118h0.366v2.728h-0.206c-0.030 0-0.061 0-0.084-0.015-0.027-0.014-0.050-0.032-0.068-0.053l-0-0-1.813-2.057v2.126h-0.373v-2.728h0.229c0.015 0 0.046 0 0.069 0.015zM30.4 30.796v1.082h-0.411v-1.082l-1.15-1.646h0.373c0.003-0 0.007-0 0.011-0 0.030 0 0.058 0.009 0.081 0.024l-0.001-0 0.053 0.061 0.716 1.067c0.045 0.067 0.088 0.145 0.125 0.226l0.004 0.010 0.053-0.114 0.076-0.122 0.701-1.067c0.015-0.023 0.033-0.043 0.053-0.061l0-0c0.023-0.019 0.053-0.031 0.086-0.031 0.002 0 0.004 0 0.005 0h0.381l-1.158 1.653zM13.509 24.579l0.549 0.046c2.781-1.067 5.093-2.834 6.791-5.089l0.028-0.039c1.514-2.018 2.425-4.565 2.425-7.324 0-0.077-0.001-0.154-0.002-0.23l0 0.011-3.093-2.682c0.632 2.842 0.335 5.775-0.846 8.48-1.296 2.832-3.301 5.15-5.791 6.789l-0.060 0.037z"></path>
<path d="M12.404 24.457l0.084 0.008c2.819-1.752 4.975-4.198 6.171-7.032 0.682-1.541 1.080-3.339 1.080-5.229 0-1.282-0.183-2.522-0.524-3.695l0.023 0.093-4.404-3.817c1.372 2.346 2.182 5.166 2.182 8.175 0 0.69-0.043 1.371-0.125 2.038l0.008-0.080c-0.502 3.719-2.122 6.992-4.504 9.541l0.009-0.010zM27.33 15.109c-0.856 3.109-2.689 5.706-5.143 7.508l-0.038 0.027c-0.762 0.579-1.585 1.090-2.453 1.531 2.126-0.541 4.084-1.501 5.714-2.804 1.575-1.248 2.831-2.831 3.67-4.645l0.033-0.079-1.783-1.539z"></path>
<path d="M26.629 14.674l-2.545-2.21c-0.068 2.681-0.951 5.143-2.41 7.161l0.026-0.037c-1.59 2.191-3.686 3.922-6.121 5.042l-0.097 0.040h0.015c0.571 0 1.143-0.030 1.707-0.084 2.417-0.853 4.477-2.196 6.144-3.919l0.004-0.004c1.561-1.615 2.707-3.641 3.258-5.9l0.018-0.088zM12.777 3.17l-3.032-2.636c-2.706 0.891-4.978 2.482-6.677 4.561l-0.020 0.026c-1.555 1.917-2.505 4.381-2.53 7.065l-0 0.005c0.040 2.975 1.2 5.672 3.077 7.695l-0.007-0.007c2.041 2.197 4.728 3.768 7.759 4.41l0.097 0.017c2.629-2.71 4.345-6.318 4.644-10.322l0.003-0.055c0.017-0.274 0.026-0.594 0.026-0.917 0-3.72-1.256-7.147-3.368-9.879l0.028 0.037zM33.63 14.27c-0.008-3.314-1.524-6.476-4.221-8.823-2.692-2.279-6.204-3.665-10.039-3.665-0.039 0-0.077 0-0.116 0l0.006-0c-1.76 0-3.505 0.282-5.15 0.838l18.56 16.114c0.604-1.312 0.958-2.847 0.96-4.464v-0.001z"></path>
</svg>
