<!-- Generated by IcoMoon.io -->
<svg version="1.1" xmlns="http://www.w3.org/2000/svg" width="65" height="32" viewBox="0 0 65 32">
<title>poster</title>
<path d="M10.019 9.981c-1.829 0-3.314 1.318-3.314 2.941 0 1.63 1.486 2.941 3.307 2.941 1.829 0 3.314-1.31 3.314-2.941 0-1.623-1.486-2.941-3.307-2.941zM34.438 9.044c-0.008-2.255-1.021-4.419-2.819-6.019-1.783-1.548-4.127-2.492-6.692-2.492-0.021 0-0.041 0-0.062 0h0.003c-2.537 0-4.975 0.899-6.766 2.499-1.701 1.464-2.782 3.608-2.819 6.005l-0 0.006v12.434s19.154-1.897 19.154-12.434zM0 25.562c0 1.57 0.709 3.070 1.958 4.183 1.242 1.079 2.875 1.737 4.662 1.737 0.014 0 0.027-0 0.041-0h-0.002c1.768 0 3.459-0.625 4.709-1.737 1.182-1.020 1.933-2.511 1.958-4.178l0-0.004v-8.648s-13.326 1.318-13.326 8.648zM6.659 27.109c-0.343 0-0.686-0.084-0.968-0.259-0.278-0.163-0.498-0.4-0.636-0.684l-0.004-0.009c-0.084-0.174-0.133-0.378-0.133-0.594 0-0.108 0.012-0.213 0.036-0.314l-0.002 0.009c0.069-0.305 0.229-0.571 0.48-0.792 0.243-0.214 0.546-0.365 0.88-0.425l0.011-0.002c0.335-0.053 0.686-0.023 1.006 0.091s0.594 0.312 0.785 0.571c0.182 0.238 0.292 0.539 0.292 0.866 0 0.436-0.195 0.827-0.503 1.090l-0.002 0.002c-0.168 0.152-0.358 0.259-0.571 0.343-0.213 0.076-0.434 0.114-0.67 0.114zM20.13 26.255h-1.288v1.333h-0.67v-3.253h2.118v0.541h-1.448v0.838h1.288v0.541zM23.345 26.034c0 0.32-0.053 0.602-0.168 0.838-0.202 0.453-0.648 0.763-1.166 0.763-0.016 0-0.032-0-0.048-0.001l0.002 0c-0.014 0-0.029 0.001-0.045 0.001-0.517 0-0.962-0.302-1.17-0.74l-0.003-0.008c-0.106-0.231-0.168-0.5-0.168-0.785 0-0.019 0-0.038 0.001-0.056l-0 0.003v-0.145c0-0.328 0.053-0.61 0.175-0.846 0.208-0.453 0.658-0.762 1.18-0.762 0.011 0 0.022 0 0.033 0l-0.002-0c0.267 0 0.51 0.069 0.716 0.198 0.213 0.13 0.381 0.32 0.488 0.564 0.122 0.236 0.175 0.518 0.175 0.838v0.152zM22.667 25.882c0-0.335-0.061-0.594-0.183-0.77-0.108-0.162-0.29-0.267-0.496-0.267-0.008 0-0.015 0-0.023 0l0.001-0c-0.229 0-0.404 0.084-0.526 0.259s-0.183 0.434-0.183 0.77v0.16c0 0.335 0.061 0.587 0.183 0.77s0.305 0.274 0.533 0.274c0.221 0 0.389-0.084 0.51-0.259s0.183-0.434 0.183-0.77v-0.16zM25.516 26.735c0-0.13-0.046-0.229-0.13-0.29-0.14-0.091-0.302-0.164-0.476-0.211l-0.012-0.003c-0.229-0.076-0.411-0.152-0.549-0.229-0.366-0.198-0.556-0.465-0.556-0.8 0-0.183 0.053-0.335 0.152-0.472s0.236-0.244 0.427-0.328c0.183-0.076 0.389-0.114 0.625-0.114 0.229 0 0.434 0.046 0.617 0.13 0.183 0.076 0.32 0.198 0.427 0.358 0.099 0.152 0.152 0.328 0.152 0.518h-0.67c0-0.152-0.053-0.267-0.145-0.343-0.098-0.081-0.225-0.13-0.363-0.13-0.012 0-0.023 0-0.034 0.001l0.002-0c-0.010-0.001-0.023-0.001-0.035-0.001-0.129 0-0.249 0.040-0.348 0.109l0.002-0.001c-0.084 0.060-0.137 0.157-0.137 0.267 0 0.003 0 0.005 0 0.008v-0c0 0.107 0.053 0.19 0.16 0.267 0.107 0.069 0.267 0.137 0.472 0.198 0.381 0.114 0.655 0.259 0.838 0.427 0.168 0.168 0.251 0.381 0.251 0.632 0 0.282-0.099 0.503-0.312 0.663s-0.503 0.244-0.861 0.244c-0.006 0-0.014 0-0.021 0-0.24 0-0.469-0.050-0.675-0.142l0.011 0.004c-0.372-0.14-0.633-0.494-0.633-0.908 0-0.008 0-0.015 0-0.023l-0 0.001h0.67c0 0.358 0.221 0.533 0.648 0.533 0.152 0 0.282-0.030 0.373-0.091 0.084-0.076 0.13-0.16 0.13-0.274zM29.097 24.876h-0.998v2.712h-0.67v-2.712h-0.99v-0.533h2.651v0.533zM31.429 26.171h-1.28v0.876h1.509v0.533h-2.179v-3.246h2.171v0.541h-1.501v0.777h1.28v0.526zM33.257 26.4h-0.533v1.189h-0.678v-3.253h1.211c0.381 0 0.678 0.084 0.884 0.259 0.213 0.168 0.312 0.411 0.312 0.724 0 0.229-0.046 0.404-0.145 0.556-0.091 0.152-0.236 0.267-0.434 0.35l0.701 1.333v0.030h-0.716l-0.61-1.189zM32.724 25.851h0.533c0.168 0 0.305-0.038 0.389-0.122 0.085-0.083 0.138-0.199 0.138-0.327 0-0.011-0-0.021-0.001-0.032l0 0.001c0-0.152-0.038-0.274-0.13-0.358-0.084-0.091-0.221-0.137-0.396-0.137h-0.533v0.975zM36.777 26.438v1.143h-0.67v-3.246h1.265c0.244 0 0.457 0.046 0.648 0.137 0.183 0.084 0.328 0.213 0.427 0.381 0.099 0.16 0.152 0.35 0.152 0.556 0 0.32-0.114 0.571-0.335 0.762-0.213 0.175-0.518 0.267-0.899 0.267h-0.587zM36.777 25.905h0.594c0.175 0 0.312-0.046 0.404-0.13 0.099-0.084 0.145-0.206 0.145-0.358 0-0.005 0-0.010 0-0.015 0-0.142-0.055-0.27-0.145-0.366l0 0c-0.095-0.094-0.226-0.152-0.37-0.152-0.004 0-0.008 0-0.011 0h-0.617v1.013zM41.013 26.179h-1.288v0.869h1.509v0.533h-2.179v-3.246h2.179v0.541h-1.509v0.777h1.288v0.526zM44.122 24.884h-0.998v2.705h-0.67v-2.712h-0.983v-0.533h2.651v0.533zM46.461 26.179h-1.295v0.869h1.516v0.533h-2.187v-3.246h2.171v0.541h-1.486v0.777h1.288v0.526zM48.274 26.4h-0.533v1.189h-0.67v-3.253h1.211c0.381 0 0.686 0.084 0.891 0.259 0.206 0.168 0.305 0.411 0.305 0.724 0 0.229-0.046 0.404-0.137 0.556-0.099 0.152-0.244 0.267-0.442 0.35l0.709 1.333v0.030h-0.724l-0.61-1.189zM47.741 25.851h0.541c0.168 0 0.305-0.038 0.396-0.122 0.085-0.083 0.138-0.199 0.138-0.327 0-0.011-0-0.021-0.001-0.032l0 0.001c0-0.152-0.046-0.274-0.137-0.358-0.076-0.091-0.213-0.137-0.396-0.137h-0.533v0.975zM51.68 26.735c0-0.13-0.046-0.229-0.137-0.29-0.138-0.090-0.298-0.163-0.468-0.21l-0.012-0.003c-0.229-0.076-0.419-0.152-0.549-0.229-0.373-0.198-0.556-0.465-0.556-0.8 0-0.183 0.046-0.335 0.152-0.472 0.091-0.137 0.236-0.244 0.419-0.328 0.19-0.076 0.396-0.114 0.625-0.114s0.442 0.046 0.625 0.13c0.183 0.076 0.32 0.198 0.419 0.358 0.099 0.152 0.152 0.328 0.152 0.518h-0.67c0-0.152-0.046-0.267-0.137-0.343-0.098-0.081-0.225-0.13-0.363-0.13-0.012 0-0.023 0-0.034 0.001l0.002-0c-0.010-0.001-0.023-0.001-0.035-0.001-0.129 0-0.249 0.040-0.348 0.109l0.002-0.001c-0.084 0.060-0.137 0.157-0.137 0.267 0 0.003 0 0.005 0 0.008v-0c0 0.107 0.053 0.19 0.152 0.267 0.114 0.069 0.267 0.137 0.48 0.198 0.381 0.114 0.655 0.259 0.83 0.427s0.259 0.381 0.259 0.632c0 0.282-0.107 0.503-0.32 0.663s-0.495 0.244-0.861 0.244c-0.006 0-0.014 0-0.021 0-0.24 0-0.469-0.050-0.675-0.142l0.011 0.004c-0.372-0.14-0.633-0.494-0.633-0.908 0-0.008 0-0.015 0-0.023l-0 0.001h0.678c0 0.358 0.213 0.533 0.64 0.533 0.16 0 0.29-0.030 0.381-0.091 0.084-0.076 0.13-0.16 0.13-0.274z"></path>
</svg>
