<!-- Generated by IcoMoon.io -->
<svg version="1.1" xmlns="http://www.w3.org/2000/svg" width="28" height="32" viewBox="0 0 28 32">
<title>yaico</title>
<path d="M4.085 0l4.766 4.514h-8.851v21.903h23.149v-8.374l4.766 4.507v-22.55h-23.83zM22.945 17.518l-13.542-12.807h13.542v12.8zM18.737 23.224h-15.074v-14.74h1.069v13.74h14.005v1.001zM7.224 29.345l-0.558 1.144-0.558-1.144h-0.456l0.817 1.532v0.885h0.415v-0.885l0.817-1.532h-0.477zM7.925 31.762l0.191-0.558h0.94l0.204 0.558h0.436l-0.919-2.417h-0.374l-0.919 2.417h0.443zM8.586 29.855l0.354 1.008h-0.701l0.347-1.008zM10.805 30.808c-0.055 0.084-0.088 0.187-0.088 0.298 0 0.001 0 0.001 0 0.002v-0c0 0.204 0.068 0.374 0.211 0.497 0.143 0.129 0.34 0.191 0.579 0.191s0.443-0.068 0.613-0.191l0.136 0.157h0.477l-0.361-0.415c0.136-0.191 0.204-0.436 0.204-0.735h-0.34c0 0.163-0.041 0.313-0.109 0.443l-0.463-0.545 0.163-0.129c0.116-0.082 0.204-0.163 0.252-0.252 0.047-0.078 0.074-0.171 0.074-0.271 0-0.154-0.065-0.292-0.169-0.389l-0-0c-0.108-0.097-0.252-0.157-0.409-0.157-0.007 0-0.014 0-0.020 0l0.001-0c-0.012-0.001-0.025-0.001-0.039-0.001-0.166 0-0.317 0.062-0.432 0.165l0.001-0.001c-0.106 0.107-0.171 0.254-0.171 0.416 0 0.012 0 0.023 0.001 0.034l-0-0.002c0 0.082 0.020 0.163 0.054 0.245s0.102 0.184 0.197 0.3c-0.141 0.094-0.26 0.207-0.358 0.337l-0.003 0.004zM11.894 31.34c-0.103 0.084-0.236 0.135-0.381 0.136h-0c-0.006 0-0.013 0.001-0.020 0.001-0.102 0-0.196-0.039-0.266-0.103l0 0c-0.067-0.066-0.109-0.157-0.109-0.259 0-0.005 0-0.010 0-0.014l-0 0.001c0-0.136 0.068-0.245 0.204-0.347l0.048-0.041 0.524 0.626zM11.466 30.264c-0.116-0.136-0.17-0.252-0.17-0.347 0-0.082 0.020-0.15 0.068-0.204 0.044-0.046 0.105-0.075 0.174-0.075 0.004 0 0.007 0 0.011 0l-0.001-0c0.075 0 0.136 0.020 0.184 0.068 0.048 0.041 0.068 0.095 0.068 0.157 0 0.095-0.034 0.177-0.102 0.238l-0.048 0.041-0.184 0.123zM15.401 31.585c0.17-0.15 0.266-0.347 0.286-0.613h-0.415c-0.020 0.177-0.075 0.3-0.157 0.374-0.088 0.075-0.204 0.109-0.374 0.109-0.006 0-0.013 0-0.021 0-0.16 0-0.302-0.080-0.387-0.203l-0.001-0.002c-0.095-0.136-0.143-0.34-0.143-0.599v-0.211c0-0.259 0.048-0.456 0.15-0.586 0.095-0.136 0.238-0.204 0.422-0.204 0.157 0 0.272 0.041 0.354 0.116s0.136 0.204 0.157 0.374h0.415c-0.012-0.242-0.117-0.457-0.279-0.612l-0-0c-0.161-0.136-0.371-0.219-0.601-0.219-0.016 0-0.032 0-0.049 0.001l0.002-0c-0.204 0-0.374 0.048-0.524 0.136-0.15 0.102-0.272 0.232-0.347 0.409-0.082 0.17-0.123 0.374-0.123 0.599v0.232c0 0.218 0.041 0.415 0.123 0.586s0.191 0.3 0.34 0.388c0.15 0.095 0.32 0.136 0.511 0.136 0.272 0 0.497-0.068 0.66-0.211zM17.872 31.244c0.082-0.184 0.123-0.388 0.123-0.626v-0.136c0-0.238-0.041-0.443-0.123-0.613-0.146-0.332-0.471-0.559-0.85-0.559-0.012 0-0.025 0-0.037 0.001l0.002-0c-0.191 0-0.368 0.048-0.517 0.143-0.157 0.095-0.272 0.238-0.354 0.415-0.082 0.184-0.129 0.388-0.129 0.626v0.136c0 0.232 0.048 0.436 0.129 0.613s0.204 0.313 0.354 0.409c0.157 0.095 0.334 0.143 0.524 0.143 0.204 0 0.374-0.048 0.531-0.136 0.15-0.102 0.272-0.238 0.347-0.415zM17.423 29.876c0.102 0.136 0.157 0.347 0.157 0.613v0.129c0 0.272-0.054 0.477-0.157 0.62-0.090 0.129-0.237 0.212-0.403 0.212-0.009 0-0.018-0-0.027-0.001l0.001 0c-0.006 0-0.012 0-0.019 0-0.169 0-0.318-0.083-0.409-0.21l-0.001-0.002c-0.099-0.158-0.159-0.35-0.159-0.556 0-0.022 0.001-0.044 0.002-0.066l-0 0.003v-0.136c0-0.266 0.054-0.463 0.157-0.613 0.091-0.125 0.237-0.205 0.402-0.205 0.009 0 0.019 0 0.028 0.001l-0.001-0c0.184 0 0.327 0.068 0.429 0.204z"></path>
</svg>
